<?xml version="1.0" encoding="UTF-8"?><svg id="Layer_1" xmlns="http://www.w3.org/2000/svg" viewBox="0 0 843.69 265.56"><defs><style>.cls-1{fill:#fff;}</style></defs><path class="cls-1" d="M2.07,57.26h19.03v74.83h20.87v17.47H2.07V57.26Z"/><path class="cls-1" d="M76.19,132.52h-11.36l-1.42,17.04h-19.17l9.8-92.3h33.37l9.37,92.3h-19.17l-1.42-17.04ZM66.25,115.48h8.66l-3.27-40.47h-2.13l-3.27,40.47Z"/><path class="cls-1" d="M126.89,57.26h35.22c9.94,0,11.93,6.11,11.93,17.18v37.06c0,8.66-3.27,16.19-13.77,16.19h-14.34v21.87h-19.03V57.26ZM155,110.37v-35.5h-9.09v35.5h9.09Z"/><path class="cls-1" d="M179.57,149.56V57.26h35.07c8.8,0,12.21,4.83,12.21,16.9v30.25c0,8.66-1.85,13.49-6.39,15.48l7.81,29.68h-19.03l-7.1-27.55h-3.55v27.55h-19.03ZM208.11,104.69v-29.82h-9.51v29.82h9.51Z"/><path class="cls-1" d="M233.24,131.52v-55.66c0-11.64,5.82-18.6,15.48-18.6h16.33c11.22,0,16.33,6.96,16.33,18.89v55.1c0,11.79-5.4,18.32-15.76,18.32h-16.9c-9.37,0-15.48-6.11-15.48-18.03ZM262.49,132.09v-57.23h-10.37v57.23h10.37Z"/><path class="cls-1" d="M321.28,149.56h-32.94V57.26h33.79c10.08,0,13.21,6.25,13.21,16.9v18.46c0,5.11-1.85,8.52-4.83,9.66,4.12,1.56,5.68,5.11,5.68,10.93v20.45c0,8.09-4.4,15.9-14.91,15.9ZM316.31,94.89v-20.87h-9.23v20.87h9.23ZM317.3,132.8v-21.16h-10.22v21.16h10.22Z"/><path class="cls-1" d="M370.55,132.52h-11.36l-1.42,17.04h-19.17l9.8-92.3h33.37l9.37,92.3h-19.17l-1.42-17.04ZM360.61,115.48h8.66l-3.27-40.47h-2.13l-3.27,40.47Z"/><path class="cls-1" d="M402.65,74.87h-14.91v-17.61h48.85v17.61h-14.77v74.69h-19.17v-74.69Z"/><path class="cls-1" d="M440.84,57.26h19.03v92.3h-19.03V57.26Z"/><path class="cls-1" d="M466.97,131.52v-55.66c0-11.64,5.82-18.6,15.48-18.6h16.33c11.22,0,16.33,6.96,16.33,18.89v55.1c0,11.79-5.4,18.32-15.76,18.32h-16.9c-9.37,0-15.48-6.11-15.48-18.03ZM496.22,132.09v-57.23h-10.37v57.23h10.37Z"/><path class="cls-1" d="M550.46,149.56l-6.82-27.41c-2.27-8.24-4.83-23.86-7.1-38.2.57,13.21,1.14,26.84,1.14,33.51v32.09h-15.62V57.26h22.15l8.24,34.51c2.7,10.51,5.68,26.98,8.09,40.33-.85-11.79-1.7-24.71-1.7-33.37v-41.46h15.62v92.3h-24Z"/><path class="cls-1" d="M2.07,173.26h39.62v17.61h-20.59v20.16h14.91v17.32h-14.91v19.74h20.59v17.47H2.07v-92.3Z"/><path class="cls-1" d="M75.63,265.56l-6.82-27.41c-2.27-8.24-4.83-23.86-7.1-38.2.57,13.21,1.14,26.84,1.14,33.51v32.09h-15.62v-92.3h22.15l8.24,34.51c2.7,10.51,5.68,26.98,8.09,40.33-.85-11.79-1.7-24.71-1.7-33.37v-41.46h15.62v92.3h-24Z"/><path class="cls-1" d="M155,245.11h1.7l6.25-71.85h19.17l-11.5,92.3h-29.96l-10.93-92.3h19.17l6.11,71.85Z"/><path class="cls-1" d="M186.53,173.26h19.03v92.3h-19.03v-92.3Z"/><path class="cls-1" d="M235.09,245.11h1.7l6.25-71.85h19.17l-11.5,92.3h-29.96l-10.93-92.3h19.17l6.11,71.85Z"/><path class="cls-1" d="M265.48,247.52v-55.66c0-11.64,5.82-18.6,15.48-18.6h16.33c11.22,0,16.33,6.96,16.33,18.89v55.1c0,11.79-5.4,18.32-15.76,18.32h-16.9c-9.37,0-15.48-6.11-15.48-18.03ZM294.73,248.09v-57.23h-10.37v57.23h10.37Z"/><path class="cls-1" d="M346.56,173.26h39.62v17.61h-20.59v20.16h14.91v17.32h-14.91v19.74h20.59v17.47h-39.62v-92.3Z"/><path class="cls-1" d="M420.11,265.56l-6.82-27.41c-2.27-8.24-4.83-23.86-7.1-38.2.57,13.21,1.14,26.84,1.14,33.51v32.09h-15.62v-92.3h22.15l8.24,34.51c2.7,10.51,5.68,26.98,8.09,40.33-.85-11.79-1.7-24.71-1.7-33.37v-41.46h15.62v92.3h-24Z"/><path class="cls-1" d="M476.91,173.26h19.03v74.83h20.87v17.47h-39.9v-92.3Z"/><path class="cls-1" d="M551.03,248.52h-11.36l-1.42,17.04h-19.17l9.8-92.3h33.37l9.37,92.3h-19.17l-1.42-17.04ZM541.09,231.48h8.66l-3.27-40.47h-2.13l-3.27,40.47Z"/><path class="cls-1" d="M601.73,173.26h35.21c9.94,0,11.93,6.11,11.93,17.18v37.06c0,8.66-3.27,16.19-13.77,16.19h-14.34v21.87h-19.03v-92.3ZM629.84,226.37v-35.5h-9.09v35.5h9.09Z"/><path class="cls-1" d="M654.41,173.26h19.03v74.83h20.87v17.47h-39.9v-92.3Z"/><path class="cls-1" d="M728.53,248.52h-11.36l-1.42,17.04h-19.17l9.8-92.3h33.37l9.37,92.3h-19.17l-1.42-17.04ZM718.59,231.48h8.66l-3.27-40.47h-2.13l-3.27,40.47Z"/><path class="cls-1" d="M760.62,190.87h-14.91v-17.61h48.85v17.61h-14.77v74.69h-19.17v-74.69Z"/><path class="cls-1" d="M823.1,248.52h-11.36l-1.42,17.04h-19.17l9.8-92.3h33.37l9.37,92.3h-19.17l-1.42-17.04ZM813.16,231.48h8.66l-3.27-40.47h-2.13l-3.27,40.47Z"/><path class="cls-1" d="M17.59,21.33v7.11c0,3.64-1.18,6.9-5.99,6.9h-5.77c-3.53,0-5.83-1.87-5.83-6.47V6.26C0,2.25,2.19.59,5.83.59h5.56c4.97,0,6.2,2.62,6.2,7.11v5.35h-7.06v-5.83h-3.42v21.55h3.42v-7.43h7.06Z"/><path class="cls-1" d="M19.89,28.23v-11.23c0-4.65,2.19-7,6.15-7h3.85c4.06,0,6.2,2.25,6.2,7v11.17c0,4.76-2.14,7.16-6.2,7.16h-3.85c-3.9,0-6.15-2.25-6.15-7.11ZM29.67,29.09v-12.67h-3.37v12.67h3.37Z"/><path class="cls-1" d="M38.71,10h6.42l.16,1.98c1.44-1.18,3.64-2.19,6.04-2.19l-.53,6.68h-5.4v18.87h-6.68V10Z"/><path class="cls-1" d="M52.94,10h6.42l.16,1.98c1.44-1.18,3.64-2.19,6.04-2.19l-.54,6.68h-5.4v18.87h-6.68V10Z"/><path class="cls-1" d="M67.16,1.76h6.68v5.88h-6.68V1.76ZM67.16,10h6.68v25.34h-6.68V10Z"/><path class="cls-1" d="M76.46,28.23v-11.23c0-4.6,2.19-7,6.15-7h3.74c3.96,0,6.15,2.19,6.15,6.95v7.97h-9.62v4.71h3.37v-2.25h6.26v.91c0,4.76-2.19,7.06-6.2,7.06h-3.69c-3.9,0-6.15-2.25-6.15-7.11ZM82.88,16.15v4.71h3.37v-4.71h-3.37Z"/><path class="cls-1" d="M95.12,10h6.42l.16,1.92c1.55-1.02,3.42-2.14,5.83-2.14,2.89,0,4.22,1.6,4.22,5.45v20.1h-6.63v-18.93h-3.31v18.93h-6.68V10Z"/><path class="cls-1" d="M114.32,29.73v-14.12c0-3.26.96-5.83,4.6-5.83,2.08,0,3.85.96,5.4,2.14V0h6.63v35.34h-6.36l-.27-1.92c-.21.16-2.25,2.14-5.4,2.14-3.64,0-4.6-2.57-4.6-5.83ZM124.32,29.09v-12.67h-3.37v12.67h3.37Z"/><path class="cls-1" d="M133.62,28.23v-11.23c0-4.65,2.19-7,6.15-7h3.85c4.06,0,6.2,2.25,6.2,7v11.17c0,4.76-2.14,7.16-6.2,7.16h-3.85c-3.9,0-6.15-2.25-6.15-7.11ZM143.41,29.09v-12.67h-3.37v12.67h3.37Z"/><path class="cls-1" d="M162.17,35.34V.59h13.21c3.31,0,4.6,1.82,4.6,6.36v11.39c0,3.26-.69,5.08-2.41,5.83l2.94,11.17h-7.17l-2.67-10.37h-1.34v10.37h-7.16ZM172.92,18.45V7.22h-3.58v11.23h3.58Z"/><path class="cls-1" d="M182.33,29.73v-14.12c0-3.26.96-5.83,4.6-5.83,2.09,0,3.85.96,5.4,2.14l.21-1.92h6.42v25.34h-6.36l-.27-1.92c-.21.16-2.25,2.14-5.4,2.14-3.64,0-4.6-2.57-4.6-5.83ZM187.41,7.97l1.71-6.58h7.27l-3.58,6.58h-5.4ZM192.33,29.09v-12.67h-3.37v12.67h3.37Z"/><path class="cls-1" d="M201.69,10h6.42l.16,1.92c1.55-1.18,3.37-2.14,5.51-2.14,3.64,0,4.6,2.57,4.6,5.83v14.12c0,3.26-.96,5.83-4.6,5.83-3.21,0-5.24-1.98-5.4-2.14v10.11h-6.68V10ZM211.69,29.09v-12.67h-3.31v12.67h3.31Z"/><path class="cls-1" d="M220.99,1.76h6.68v5.88h-6.68V1.76ZM220.99,10h6.68v25.34h-6.68V10Z"/><path class="cls-1" d="M230.3,29.73v-14.12c0-3.26.96-5.83,4.6-5.83,2.08,0,3.85.96,5.4,2.14V0h6.63v35.34h-6.36l-.27-1.92c-.21.16-2.25,2.14-5.4,2.14-3.64,0-4.6-2.57-4.6-5.83ZM240.29,29.09v-12.67h-3.37v12.67h3.37Z"/><path class="cls-1" d="M249.6,28.23v-11.23c0-4.65,2.19-7,6.15-7h3.85c4.06,0,6.2,2.25,6.2,7v11.17c0,4.76-2.14,7.16-6.2,7.16h-3.85c-3.9,0-6.15-2.25-6.15-7.11ZM259.38,29.09v-12.67h-3.37v12.67h3.37Z"/><path class="cls-1" d="M278.15,28.77v-12.03c0-4.38,2.19-6.74,6.47-6.74h2.83c4.38,0,6.58,2.25,6.58,6.74v2.57h-6.42v-2.89h-3.05v12.67h3.05v-4.01h6.42v3.64c0,4.22-2.19,6.63-6.68,6.63h-2.73c-4.22,0-6.47-2.25-6.47-6.58Z"/><path class="cls-1" d="M296.38,28.23v-11.23c0-4.65,2.19-7,6.15-7h3.85c4.06,0,6.2,2.25,6.2,7v11.17c0,4.76-2.14,7.16-6.2,7.16h-3.85c-3.9,0-6.15-2.25-6.15-7.11ZM306.17,29.09v-12.67h-3.37v12.67h3.37Z"/><path class="cls-1" d="M315.21,10h6.42l.16,1.92c1.55-1.02,3.42-2.14,5.83-2.14,2.89,0,4.22,1.6,4.22,5.45v20.1h-6.63v-18.93h-3.31v18.93h-6.68V10Z"/></svg>