<?xml version="1.0" encoding="UTF-8"?><svg id="Layer_1" xmlns="http://www.w3.org/2000/svg" viewBox="0 0 618.23 171.46"><defs><style>.cls-1{fill:#fed305;}.cls-2{fill:#f7f7f7;}</style></defs><path class="cls-2" d="M38.38,22.95l2.33-10.31c.4-1.82-.51-3.13-2.43-3.13h-7.48c-1.82,0-3.44,1.31-3.84,3.13l-11.12,48.23c-.4,1.82.51,3.13,2.43,3.13h7.48c1.92,0,3.44-1.31,3.84-3.13l2.43-10.31h14.66l-2.73,11.63c-1.52,6.77-7.08,11.32-13.85,11.32H9.46c-6.67,0-10.21-4.55-8.59-11.32L12.6,11.32C14.22,4.55,19.68,0,26.45,0h20.62c6.67,0,10.21,4.55,8.59,11.32l-2.63,11.63h-14.66Z"/><path class="cls-2" d="M56.58,30.84c1.62-6.77,7.18-11.22,13.95-11.22h15.17c6.67,0,10.21,4.45,8.59,11.22l-7.18,31.34c-1.62,6.77-7.18,11.32-13.85,11.32h-15.27c-6.67,0-10.21-4.55-8.59-11.32l7.18-31.34ZM69.62,64c1.92,0,3.44-1.31,3.84-3.13l6.57-28.61c.51-1.82-.51-3.13-2.33-3.13h-3.64c-1.82,0-3.44,1.31-3.84,3.13l-6.57,28.61c-.4,1.82.51,3.13,2.43,3.13h3.54Z"/><path class="cls-2" d="M132.3,33.57c-3.13-1.31-6.88-2.33-10.11-2.33-4.15,0-7.68,1.52-8.59,5.76l-8.39,36.5h-13.95l12.44-53.89h13.24l-1.21,5.06c2.93-2.93,9.3-5.46,15.67-5.46,1.42,0,2.83.1,4.15.4l-3.24,13.95Z"/><path class="cls-2" d="M168.09,33.57c-3.13-1.31-6.88-2.33-10.11-2.33-4.15,0-7.68,1.52-8.59,5.76l-8.39,36.5h-13.95l12.44-53.89h13.24l-1.21,5.06c2.93-2.93,9.3-5.46,15.67-5.46,1.42,0,2.83.1,4.15.4l-3.24,13.95Z"/><path class="cls-2" d="M175.26,19.61h13.95l-12.44,53.89h-13.95l12.44-53.89ZM179.1,1.31h14.66l-2.83,12.54h-14.66l2.83-12.54Z"/><path class="cls-2" d="M200.23,60.86c-.4,1.82.51,3.13,2.43,3.13h3.54c1.92,0,3.44-1.31,3.84-3.13l1.92-8.39h13.95l-2.22,9.71c-1.62,6.77-7.18,11.32-13.85,11.32h-15.27c-6.67,0-10.21-4.55-8.59-11.32l7.18-31.34c1.62-6.77,7.18-11.22,13.95-11.22h15.17c6.67,0,10.21,4.45,8.59,11.22l-4.15,17.9h-23.76l-2.73,12.13ZM214.49,41.45l2.12-9.2c.51-1.82-.5-3.13-2.33-3.13h-3.64c-1.82,0-3.44,1.31-3.84,3.13l-2.12,9.2h9.81Z"/><path class="cls-2" d="M253.41,19.61l-1.21,5.06c3.13-3.03,8.29-5.76,13.65-5.76,7.18,0,11.02,5.16,9.4,12.23l-9.81,42.36h-13.95l9.5-41.05c.41-1.92-.81-3.34-3.64-3.34-3.03,0-5.76,1.52-6.27,3.44l-9.4,40.95h-13.95l12.44-53.89h13.25Z"/><path class="cls-2" d="M296.38,73.5l1.01-4.35c-3.13,3.03-8.09,5.06-13.24,5.06-7.38,0-11.42-4.45-9.81-11.53l7.48-32.25c1.62-7.08,7.68-11.53,15.17-11.53,4.65,0,8.29,1.62,10.31,4.25l5.36-23.15h13.85l-16.88,73.5h-13.25ZM300.52,29.12c-2.93,0-4.75,1.42-5.26,3.34l-6.47,28.21c-.4,1.92.81,3.34,3.74,3.34s5.66-1.52,6.07-3.44l6.47-28.01c.5-1.92-1.62-3.44-4.55-3.44Z"/><path class="cls-2" d="M326.1,30.84c1.62-6.77,7.18-11.22,13.95-11.22h15.17c6.67,0,10.21,4.45,8.59,11.22l-7.18,31.34c-1.62,6.77-7.18,11.32-13.85,11.32h-15.27c-6.67,0-10.21-4.55-8.59-11.32l7.18-31.34ZM339.14,64c1.92,0,3.44-1.31,3.84-3.13l6.57-28.61c.51-1.82-.5-3.13-2.33-3.13h-3.64c-1.82,0-3.44,1.31-3.84,3.13l-6.57,28.61c-.4,1.82.51,3.13,2.43,3.13h3.54Z"/><path class="cls-2" d="M395.22,73.5l6.67-28.81c.4-1.92-.51-3.13-2.43-3.13h-10.62l-7.38,31.95h-14.66L383.8,0h31.85c6.67,0,10.21,4.55,8.59,11.32l-4.15,18.2c-1.01,4.35-4.85,6.37-8.9,7.28,3.64,1.01,6.47,3.13,5.56,7.18l-6.88,29.52h-14.66ZM401.69,31.95c1.92,0,3.44-1.21,3.84-3.13l3.74-16.18c.4-1.82-.5-3.13-2.43-3.13h-10.62l-5.16,22.45h10.62Z"/><path class="cls-2" d="M440.92,73.5l1.01-4.35c-3.13,3.03-8.19,5.06-13.24,5.06-7.38,0-11.42-4.45-9.81-11.53l1.82-7.99c1.72-7.08,7.79-11.53,15.17-11.53h11.32l2.53-10.92c.4-1.82-.5-3.13-2.43-3.13h-3.64c-1.82,0-3.34,1.31-3.74,3.13l-2.02,8.29h-13.85l2.22-9.71c1.52-6.77,7.08-11.22,13.85-11.22h15.17c6.77,0,10.21,4.45,8.7,11.22l-9.91,42.67h-13.14ZM440.11,50.55c-2.93,0-4.75,1.42-5.26,3.34l-1.52,6.77c-.51,1.92.71,3.34,3.74,3.34,2.83,0,5.66-1.52,6.07-3.44l2.33-10.01h-5.36ZM438.9,16.68l10.21-15.97h12.94l-20.83,15.97h-2.33Z"/><path class="cls-2" d="M486.72,19.61l-1.01,4.35c3.13-3.03,8.09-5.06,13.14-5.06,7.48,0,11.53,4.45,9.81,11.53l-7.38,32.25c-1.72,7.08-7.79,11.53-15.17,11.53-4.65,0-8.29-1.62-10.31-4.25l-5.36,23.15-14.91-.03,17.28-73.47h13.91ZM482.47,64c3.03,0,4.85-1.42,5.26-3.34l6.57-28.21c.4-1.92-.81-3.34-3.74-3.34s-5.66,1.52-6.17,3.44l-6.47,28.01c-.4,1.92,1.72,3.44,4.55,3.44Z"/><path class="cls-2" d="M517.75,19.61h13.95l-12.44,53.89h-13.95l12.44-53.89ZM521.59,1.31h14.66l-2.83,12.54h-14.66l2.83-12.54Z"/><path class="cls-2" d="M550.41,73.5l1.01-4.35c-3.13,3.03-8.09,5.06-13.24,5.06-7.38,0-11.42-4.45-9.81-11.53l7.48-32.25c1.62-7.08,7.68-11.53,15.17-11.53,4.65,0,8.29,1.62,10.31,4.25l5.36-23.15h13.85l-16.88,73.5h-13.25ZM554.55,29.12c-2.93,0-4.75,1.42-5.26,3.34l-6.47,28.21c-.4,1.92.81,3.34,3.74,3.34s5.66-1.52,6.07-3.44l6.47-28.01c.5-1.92-1.62-3.44-4.55-3.44Z"/><path class="cls-2" d="M580.13,30.84c1.62-6.77,7.18-11.22,13.95-11.22h15.17c6.67,0,10.21,4.45,8.59,11.22l-7.18,31.34c-1.62,6.77-7.18,11.32-13.85,11.32h-15.27c-6.67,0-10.21-4.55-8.59-11.32l7.18-31.34ZM593.17,64c1.92,0,3.44-1.31,3.84-3.13l6.57-28.61c.51-1.82-.5-3.13-2.33-3.13h-3.64c-1.82,0-3.44,1.31-3.84,3.13l-6.57,28.61c-.4,1.82.51,3.13,2.43,3.13h3.54Z"/><path class="cls-1" d="M109.25,87.92h16.5l-16.62,72.05h24.13l-2.39,10.7h-40.75l19.12-82.75Z"/><path class="cls-1" d="M161.04,170.67l1.14-4.89c-3.53,3.41-9.22,5.69-14.91,5.69-8.31,0-12.86-5.01-11.04-12.98l2.05-8.99c1.93-7.97,8.76-12.98,17.07-12.98h12.75l2.85-12.29c.46-2.05-.57-3.53-2.73-3.53h-4.1c-2.05,0-3.76,1.48-4.21,3.53l-2.28,9.33h-15.59l2.5-10.93c1.71-7.63,7.97-12.63,15.59-12.63h17.07c7.63,0,11.5,5.01,9.79,12.63l-11.15,48.03h-14.8ZM160.13,144.83c-3.3,0-5.35,1.59-5.92,3.76l-1.71,7.63c-.57,2.16.8,3.76,4.21,3.76,3.19,0,6.37-1.71,6.83-3.87l2.62-11.27h-6.03Z"/><path class="cls-1" d="M210.18,87.92h35.85c7.51,0,11.5,5.12,9.67,12.75l-5.92,25.72c-1.71,7.63-7.97,12.63-15.59,12.63h-19.35l-7.28,31.64h-16.5l19.12-82.75ZM229.3,128.32c2.16,0,3.87-1.37,4.32-3.53l5.24-22.65c.46-2.05-.57-3.53-2.73-3.53h-11.95l-6.83,29.71h11.95Z"/><path class="cls-1" d="M291.67,125.71c-3.53-1.48-7.74-2.62-11.38-2.62-4.67,0-8.65,1.71-9.67,6.49l-9.45,41.09h-15.71l14-60.67h14.91l-1.37,5.69c3.3-3.3,10.47-6.15,17.64-6.15,1.59,0,3.19.11,4.67.46l-3.64,15.71Z"/><path class="cls-1" d="M296.33,122.63c1.82-7.63,8.08-12.63,15.71-12.63h17.07c7.51,0,11.5,5.01,9.67,12.63l-8.08,35.28c-1.82,7.63-8.08,12.75-15.59,12.75h-17.19c-7.51,0-11.5-5.12-9.67-12.75l8.08-35.28ZM311.02,159.97c2.16,0,3.87-1.48,4.32-3.53l7.4-32.21c.57-2.05-.57-3.53-2.62-3.53h-4.1c-2.05,0-3.87,1.48-4.32,3.53l-7.4,32.21c-.46,2.05.57,3.53,2.73,3.53h3.98Z"/><path class="cls-1" d="M354.49,87.92h15.71l-6.03,26.06c3.53-2.96,8.65-4.78,13.77-4.78,8.42,0,12.98,5.01,11.04,12.98l-8.31,36.31c-1.94,7.97-8.76,12.98-17.07,12.98-5.69,0-10.24-2.28-12.18-5.69l-1.14,4.89h-14.91l19.12-82.75ZM354.38,156.1c-.46,2.16,1.94,3.87,5.12,3.87,3.41,0,5.46-1.59,5.92-3.76l7.4-31.76c.46-2.16-.91-3.76-4.21-3.76s-6.37,1.71-6.94,3.87l-7.28,31.53Z"/><path class="cls-1" d="M412.19,170.67l1.14-4.89c-3.53,3.41-9.22,5.69-14.91,5.69-8.31,0-12.86-5.01-11.04-12.98l2.05-8.99c1.93-7.97,8.76-12.98,17.07-12.98h12.75l2.85-12.29c.46-2.05-.57-3.53-2.73-3.53h-4.1c-2.05,0-3.76,1.48-4.21,3.53l-2.28,9.33h-15.59l2.5-10.93c1.71-7.63,7.97-12.63,15.59-12.63h17.07c7.63,0,11.5,5.01,9.79,12.63l-11.15,48.03h-14.8ZM411.28,144.83c-3.3,0-5.35,1.59-5.92,3.76l-1.71,7.63c-.57,2.16.8,3.76,4.21,3.76,3.19,0,6.37-1.71,6.83-3.87l2.62-11.27h-6.03Z"/><path class="cls-1" d="M449.75,170.67c-7.63,0-11.5-5.12-9.79-12.75l8.65-37.22h-7.45l2.5-10.7h7.34l4.52-16.88h14.91l-3.73,16.88h14.45l-2.39,10.7h-14.45l-8.31,35.74c-.46,2.05.57,3.53,2.73,3.53h12.06l-2.5,10.7h-18.55Z"/><path class="cls-1" d="M487.54,110h15.71l-14,60.67h-15.71l14-60.67ZM491.86,89.4h16.5l-3.19,14.11h-16.5l3.19-14.11Z"/><path class="cls-1" d="M507.68,122.63c1.82-7.63,8.08-12.63,15.71-12.63h17.07c7.51,0,11.5,5.01,9.67,12.63l-8.08,35.28c-1.82,7.63-8.08,12.75-15.59,12.75h-17.19c-7.51,0-11.5-5.12-9.67-12.75l8.08-35.28ZM522.36,159.97c2.16,0,3.87-1.48,4.32-3.53l7.4-32.21c.57-2.05-.57-3.53-2.62-3.53h-4.1c-2.05,0-3.87,1.48-4.32,3.53l-7.4,32.21c-.46,2.05.57,3.53,2.73,3.53h3.98Z"/><path class="cls-1" d="M575.63,110l-1.37,5.69c3.53-3.41,9.33-6.49,15.37-6.49,8.08,0,12.41,5.81,10.59,13.77l-11.04,47.69h-15.71l10.7-46.21c.46-2.16-.91-3.76-4.1-3.76-3.41,0-6.49,1.71-7.06,3.87l-10.59,46.1h-15.71l14-60.67h14.91Z"/><path class="cls-2" d="M20.35,104.58l1.34-5.8c.35-1.27-.35-2.19-1.63-2.19h-2.55c-1.27,0-2.4.92-2.69,2.19l-4.6,20.01c-.28,1.27.35,2.19,1.7,2.19h2.48c1.34,0,2.4-.92,2.69-2.19l1.34-5.87h9.76l-1.56,6.79c-1.13,4.74-5.02,7.92-9.69,7.92H6.28c-4.67,0-7.14-3.18-6.01-7.92l5.02-21.92c1.13-4.74,5.02-7.85,9.76-7.85h10.61c4.67,0,7.14,3.11,6.01,7.85l-1.56,6.79h-9.76Z"/><path class="cls-2" d="M35.77,97.79c1.13-4.74,5.02-7.85,9.76-7.85h10.61c4.67,0,7.14,3.11,6.01,7.85l-5.02,21.92c-1.13,4.74-5.02,7.92-9.69,7.92h-10.68c-4.67,0-7.14-3.18-6.01-7.92l5.02-21.92ZM44.89,120.98c1.34,0,2.4-.92,2.69-2.19l4.6-20.01c.35-1.27-.35-2.19-1.63-2.19h-2.55c-1.27,0-2.4.92-2.69,2.19l-4.6,20.01c-.28,1.27.35,2.19,1.7,2.19h2.48Z"/><path class="cls-2" d="M77.98,89.94l-.85,3.54c2.19-2.12,5.8-4.03,9.55-4.03,5.02,0,7.71,3.61,6.58,8.56l-6.86,29.63h-9.76l6.65-28.71c.28-1.34-.57-2.33-2.55-2.33-2.12,0-4.03,1.06-4.38,2.4l-6.58,28.64h-9.76l8.7-37.69h9.26Z"/></svg>